<?xml version="1.0" standalone="no"?>
<!DOCTYPE svg PUBLIC "-//W3C//DTD SVG 20010904//EN"
 "http://www.w3.org/TR/2001/REC-SVG-20010904/DTD/svg10.dtd">
<svg version="1.0" xmlns="http://www.w3.org/2000/svg"
 width="800.000000pt" height="800.000000pt" viewBox="0 0 800.000000 800.000000"
 preserveAspectRatio="xMidYMid meet">
<metadata>
Created by potrace 1.11, written by Peter Selinger 2001-2013
</metadata>
<g transform="translate(0.000000,800.000000) scale(0.100000,-0.100000)"
fill="#000000" stroke="none">
<path d="M3947 7414 c-1 -1 -60 -4 -132 -8 -71 -3 -143 -8 -160 -11 -16 -2
-70 -9 -120 -15 -126 -16 -352 -64 -470 -100 -55 -17 -107 -33 -115 -35 -8 -2
-58 -20 -110 -39 -613 -222 -1173 -641 -1562 -1168 -162 -219 -279 -416 -373
-628 -25 -58 -50 -114 -55 -125 -63 -143 -169 -507 -195 -675 -4 -25 -9 -54
-11 -65 -2 -11 -7 -40 -10 -65 -3 -25 -7 -55 -9 -68 -26 -162 -26 -634 0 -822
2 -19 7 -57 11 -85 3 -27 7 -52 9 -55 2 -3 6 -27 9 -55 7 -50 11 -69 41 -200
17 -74 70 -256 84 -290 5 -11 28 -72 51 -135 79 -215 247 -534 383 -724 144
-203 204 -273 392 -461 273 -274 531 -462 870 -635 127 -64 153 -76 272 -124
232 -95 579 -186 798 -211 33 -4 69 -9 80 -11 46 -9 250 -19 385 -18 141 0
377 11 389 18 3 2 34 7 69 10 34 4 86 11 115 17 29 5 64 12 79 14 53 10 274
64 338 83 208 62 591 231 740 326 262 167 342 225 502 364 404 349 724 794
926 1288 66 161 137 384 167 524 2 8 8 35 14 60 13 58 17 81 31 177 6 43 13
89 15 102 27 161 27 724 1 848 -3 12 -7 46 -10 75 -5 43 -56 302 -70 358 -81
306 -221 641 -379 902 -57 95 -220 335 -237 348 -3 3 -35 41 -70 85 -62 76
-291 312 -375 385 -48 43 -194 159 -225 180 -12 8 -48 34 -79 57 -149 107
-444 268 -634 347 -186 77 -475 165 -627 192 -25 4 -47 8 -50 9 -77 18 -288
44 -419 51 -99 6 -271 11 -274 8z m248 -778 c564 -41 1085 -253 1520 -620 115
-96 287 -275 383 -399 293 -376 488 -860 539 -1336 15 -141 8 -544 -11 -646
-2 -11 -6 -41 -10 -66 -36 -247 -141 -562 -267 -797 -84 -156 -207 -348 -263
-408 -6 -7 -20 -22 -30 -35 -77 -96 -187 -212 -193 -205 -3 3 0 35 6 73 18
119 21 154 21 277 0 126 -4 196 -16 281 -4 28 -8 55 -9 60 -5 57 -51 245 -80
330 -46 136 -122 298 -191 406 -13 21 -24 43 -24 48 0 5 -4 11 -8 13 -5 2 -24
26 -42 53 -49 72 -73 98 -187 210 -122 120 -161 155 -172 155 -4 0 -16 9 -26
20 -10 11 -24 20 -32 20 -7 0 -13 5 -13 10 0 6 -6 10 -14 10 -8 0 -16 3 -18 8
-8 18 -273 154 -282 145 -3 -4 -6 -1 -6 5 0 7 -3 11 -7 10 -5 -1 -23 3 -41 9
-18 7 -36 13 -40 14 -4 1 -31 10 -59 20 -29 10 -53 16 -53 13 0 -3 -6 -2 -12
3 -14 8 -28 11 -65 15 -13 1 -23 5 -23 9 0 4 -8 6 -17 4 -10 -1 -22 0 -28 4
-5 3 -23 7 -40 8 -100 9 -120 11 -120 13 0 2 -115 10 -182 13 -29 1 -53 4 -53
7 0 3 -15 4 -32 4 -18 -1 -41 3 -52 8 -14 8 -17 7 -11 -3 6 -8 4 -10 -4 -4 -7
4 -27 9 -44 11 -37 3 -96 13 -117 19 -8 2 -26 6 -40 9 -14 3 -40 9 -58 15 -18
5 -33 10 -35 10 -36 0 -268 111 -303 145 -6 6 -25 22 -43 36 -34 25 -94 83
-147 142 -67 74 -147 212 -205 353 -40 98 -67 275 -63 415 7 255 101 500 267
695 65 76 60 71 138 137 160 134 396 235 594 253 39 4 71 8 72 8 4 4 156 -1
248 -7z m-2069 -838 c-4 -29 -10 -71 -13 -93 -9 -57 -8 -308 0 -386 41 -389
229 -805 485 -1078 18 -18 32 -35 32 -37 0 -2 11 -14 25 -28 14 -14 25 -23 25
-22 0 2 23 -18 50 -45 28 -27 50 -46 50 -43 0 2 11 -5 25 -18 64 -59 75 -68
85 -68 5 0 10 -5 10 -12 0 -6 3 -8 6 -5 4 4 14 -1 23 -11 15 -16 29 -25 86
-56 11 -6 22 -13 25 -16 3 -3 19 -12 35 -20 17 -8 38 -21 48 -29 9 -8 17 -11
17 -7 0 4 12 -1 28 -12 15 -11 29 -20 32 -20 3 0 25 -9 50 -20 55 -24 81 -34
100 -38 8 -2 23 -7 35 -13 16 -8 56 -21 118 -37 4 -1 8 -2 10 -4 3 -3 39 -10
72 -14 17 -2 37 -7 46 -10 8 -4 33 -9 55 -11 21 -2 66 -7 99 -11 33 -4 79 -7
103 -7 23 -1 42 -5 42 -9 0 -5 9 -4 20 2 11 6 20 7 20 2 0 -5 25 -8 55 -8 30
1 55 -1 55 -4 0 -3 19 -5 42 -4 24 1 49 -4 57 -10 12 -9 13 -8 6 3 -6 10 -4
12 4 6 7 -4 31 -9 53 -11 22 -2 47 -8 56 -12 9 -5 24 -8 32 -7 8 1 23 -3 33
-8 10 -4 26 -10 36 -12 10 -2 49 -16 87 -31 129 -51 230 -118 322 -213 261
-271 373 -705 282 -1088 -30 -127 -61 -198 -155 -362 -41 -70 -187 -224 -275
-288 -94 -69 -280 -161 -360 -178 -8 -2 -35 -8 -60 -14 -80 -18 -163 -25 -285
-24 -123 0 -162 4 -345 28 -56 7 -148 27 -325 70 -5 1 -17 5 -25 8 -8 3 -40
13 -70 23 -161 50 -398 159 -552 254 -78 48 -240 161 -264 185 -6 5 -23 19
-39 30 -52 37 -311 299 -371 375 -32 41 -63 79 -67 85 -112 143 -260 406 -335
595 -30 76 -81 223 -87 250 -2 8 -13 50 -24 92 -18 67 -47 213 -56 288 -27
205 -27 576 -1 715 2 11 7 40 10 65 65 422 265 876 538 1220 58 73 179 209
187 210 2 0 0 -24 -3 -52z"/>
</g>
</svg>
